# xmcd
#
# Track frame offsets:
#	151
#	19446
#	49405
#	59898
#	88811
#	107012
#	124211
#	145574
#	167253
#	200746
#	222349
#	234186
#	249517
#	265168
#
# Disc length: 3793 seconds
#
# Revision: 0
# Processed by: cddbd v1.5.1PL0 Copyright (c) Steve Scherf et al.
# Submitted via: EasyCDDAExtractor 7.1.3.1
#
DISCID=cf0ecf0e
DTITLE=Various Artist - Lucerne Blues Festival 1999 CD1
DYEAR=2000
DGENRE=Blues
TTITLE0=Robert Lockwood Jr. - Every Day I Have The Blues
TTITLE1=The Pocket Rockets Feat. Mississippi Morris - Hurry Sundown
TTITLE2=Keith B. Brown - Dust My Broom
TTITLE3=Terry Evans - Please No More
TTITLE4=Fred James - Who.S Muddy Shoes
TTITLE5=Egidio Juke Ingala Band - I Knew
TTITLE6=J.J. Malone - See Me Early In The Morning
TTITLE7=Smokin' Joe Kubek Feat. Bnois King - Take Your Best Shot
TTITLE8=Johnny Jones - Can I Get An Amen
TTITLE9=Big George Jackson - I'm A Big Man
TTITLE10=Michael Roach - If You Don't Want Me Baby
TTITLE11=Charles Walker - Judge Of Hearts
TTITLE12=Big Bill Morganfield - Cryin' Days
TTITLE13=Hosea Leavy - Hey Boss
EXTD=
EXTT0=
EXTT1=
EXTT2=
EXTT3=
EXTT4=
EXTT5=
EXTT6=
EXTT7=
EXTT8=
EXTT9=
EXTT10=
EXTT11=
EXTT12=
EXTT13=
PLAYORDER=
